<?xml version="1.0" encoding="UTF-8" standalone="no"?>
<!-- Created with Inkscape (http://www.inkscape.org/) -->

<svg
   xmlns:dc="http://purl.org/dc/elements/1.1/"
   xmlns:cc="http://creativecommons.org/ns#"
   xmlns:rdf="http://www.w3.org/1999/02/22-rdf-syntax-ns#"
   xmlns:svg="http://www.w3.org/2000/svg"
   xmlns="http://www.w3.org/2000/svg"
   xmlns:sodipodi="http://sodipodi.sourceforge.net/DTD/sodipodi-0.dtd"
   xmlns:inkscape="http://www.inkscape.org/namespaces/inkscape"
   width="512"
   height="64"
   viewBox="0 0 512.00001 64"
   id="svg2"
   version="1.1"
   inkscape:version="0.91 r13725"
   sodipodi:docname="logo.svg"
   inkscape:export-filename="/home/petervaro/currents/prelude/img/logo.png"
   inkscape:export-xdpi="91.410004"
   inkscape:export-ydpi="91.410004">
  <defs
     id="defs4" />
  <sodipodi:namedview
     id="base"
     pagecolor="#ffffff"
     bordercolor="#666666"
     borderopacity="1.0"
     inkscape:pageopacity="0.0"
     inkscape:pageshadow="2"
     inkscape:zoom="2"
     inkscape:cx="294.7084"
     inkscape:cy="116.47918"
     inkscape:document-units="px"
     inkscape:current-layer="layer1"
     showgrid="false"
     units="px"
     inkscape:window-width="2560"
     inkscape:window-height="1422"
     inkscape:window-x="0"
     inkscape:window-y="0"
     inkscape:window-maximized="1"
     inkscape:showpageshadow="false" />
  <metadata
     id="metadata7">
    <rdf:RDF>
      <cc:Work
         rdf:about="">
        <dc:format>image/svg+xml</dc:format>
        <dc:type
           rdf:resource="http://purl.org/dc/dcmitype/StillImage" />
        <dc:title></dc:title>
      </cc:Work>
    </rdf:RDF>
  </metadata>
  <g
     inkscape:label="Layer 1"
     inkscape:groupmode="layer"
     id="layer1"
     transform="translate(0,-988.36216)">
    <path
       id="path4933"
       style="font-style:normal;font-variant:normal;font-weight:normal;font-stretch:normal;font-size:medium;line-height:125%;font-family:'Cinzel Decorative';-inkscape-font-specification:'Cinzel Decorative';letter-spacing:0px;word-spacing:0px;fill:#a2b3c2;fill-opacity:1;stroke:none;stroke-width:1px;stroke-linecap:butt;stroke-linejoin:miter;stroke-opacity:1"
       d="m 360.14598,1045.1273 -0.94024,0 c -2.5314,0 -4.55653,-2.0305 -4.62886,-4.4961 l 0,-40.248 c 0.0724,-2.5382 2.16977,-4.56872 4.62886,-4.56872 l 0.94024,0 0,-0.72519 -15.76703,0 0,0.72519 0.86791,0 c 2.5314,0 4.62885,2.03052 4.62885,4.56872 l 0,40.248 c 0,2.4656 -2.09745,4.4961 -4.62885,4.4961 l -0.86791,0 0,0.7252 15.76703,0 0,-0.7252 z m 44.96657,-50.03801 0,0.72519 1.30187,0 c 2.45908,0 4.41187,2.03052 4.48419,4.42372 l 0,35.9693 -39.41755,-42.13348 -0.65095,0 c 0,0 0.65095,4.06106 0.65095,8.99238 l 0,37.7098 c -0.0724,2.4657 -2.02514,4.4237 -4.48422,4.4237 l -1.30186,0 -0.0724,0.7251 14.89912,0 0,-0.7251 -1.30187,0 c -2.45907,0 -4.41187,-1.958 -4.48418,-4.3511 l 0,-36.1145 39.48988,42.206 0.65094,0 c 0,0 -0.72327,-4.6412 -0.72327,-9.2824 l 0,-37.4922 c 0.14466,-2.39323 2.09746,-4.35122 4.48421,-4.35122 l 1.37419,0 0,-0.7252 -14.89912,0 z m 93.14094,23.64111 c 0,16.3168 -10.1256,25.9618 -24.44611,25.9618 -14.24819,0 -23.72287,-10.7327 -23.72287,-24.4388 0,-13.7061 9.547,-24.00381 22.421,-24.00381 8.46211,0 17.06888,4.49621 19.23866,12.98091 l 0.5786,0 -1.4465,-10.22519 c -4.48421,-2.97326 -11.93376,-4.93129 -18.51541,-4.93129 -15.91168,0 -27.77312,11.31298 -27.77312,26.32438 0,15.0114 11.93376,26.4694 28.78568,26.4694 15.91169,0 26.18195,-9.4275 25.60334,-28.1374 l -0.72327,0 z" />
    <path
       id="path4198"
       style="font-style:normal;font-variant:normal;font-weight:normal;font-stretch:normal;font-size:medium;line-height:125%;font-family:'Cinzel Decorative';-inkscape-font-specification:'Cinzel Decorative';letter-spacing:0px;word-spacing:0px;fill:#46566a;fill-opacity:1;stroke:none;stroke-width:1px;stroke-linecap:butt;stroke-linejoin:miter;stroke-opacity:1"
       d="m 13.072316,997.55494 0.940244,-0.14504 c 3.037685,-0.29007 4.556524,1.52289 4.62885,3.916 l 0,39.3053 c -0.07236,2.6107 -2.242103,4.4961 -4.62885,4.4961 l -0.940244,0 0,0.7252 15.76703,0 0,-0.7252 -0.867917,0 c -2.386748,0 -4.556524,-1.8854 -4.628851,-4.4961 l 0,-43.00374 c 2.531409,-0.43513 4.918157,-0.94276 6.870954,-1.23283 8.534453,-0.94275 14.320509,3.11833 14.682142,12.47327 0.216979,6.8893 -2.603735,12.4733 -8.100486,13.4886 -3.616297,0.6526 -8.462127,-0.5802 -9.619341,-5.0039 l -0.650921,0.2176 c 0.723256,5.8015 5.858382,7.7595 10.776538,7.4694 8.24514,-0.5076 13.235622,-7.1793 13.018651,-16.1717 -0.361632,-10.80534 -8.245147,-16.17172 -19.817278,-14.72135 -3.543961,0.43512 -10.993518,1.958 -17.502839,2.6832 l 0.07236,0.72519 z m 116.773954,-3.77087 c -1.30186,0.58015 -5.49748,1.3045 -8.6075,1.3045 l -21.11807,0 0,0.72673 0.93863,0 c 2.38676,0 4.5581,1.88404 4.5581,4.2047 l 0,40.611 c 0,2.4657 -2.055,4.5454 -4.82734,4.5454 -3.909862,0 -6.786472,-2.2979 -9.751832,-5.4887 -2.74838,-3.0459 -9.039667,-12.0385 -9.039667,-12.0385 -1.374199,-1.958 -3.617738,-4.3506 -5.13659,-5.0758 6.943287,0 12.296747,-6.8164 12.296747,-13.8507 0,-8.4122 -5.424825,-13.63414 -14.176259,-13.63414 l -19.456896,0 0,0.72673 0.868841,0 c 2.531409,0 4.627893,2.02983 4.627893,4.56801 l 0,40.2477 c -0.07236,2.5382 -2.096484,4.5681 -4.627893,4.5681 l -0.868841,0 0,0.7267 15.767655,0 0,-0.7267 -0.940894,0 c -2.531391,0 -4.555548,-2.1024 -4.627867,-4.5681 l 0,-43.22006 c 0.940227,0 5.351055,-0.14505 9.039673,0 5.352101,0.29007 8.752911,4.49586 8.969881,11.09506 0,1.5954 -0.144821,3.3361 -0.506452,4.3514 -2.025127,6.5266 -7.522901,7.3953 -11.283831,7.5403 l -3.833311,0 0,0.6523 c 2.676054,0 4.773239,2.5383 6.653713,4.9314 0.578602,0.6526 8.752784,12.5465 9.548368,13.5618 2.24209,2.6832 5.52719,6.3312 13.20176,6.3624 1.01844,0 32.548072,0.02 32.548072,0.02 l 4.19569,-11.7496 -0.72254,0 c -2.24211,5.5115 -5.13665,9.5016 -12.80318,9.5016 l -10.41499,0 0,-21.7567 12.29675,0 c 1.9528,0.072 3.4709,1.6689 3.4709,3.6269 l 0,1.0156 0.72254,0 0,-11.4584 -0.72254,0 0,1.0878 c 0,1.958 -1.59014,3.5525 -3.54294,3.5525 l -12.22471,0 0,-22.40908 14.75473,0 c 2.31443,0.14502 4.05166,2.03073 4.05166,4.35138 l 0,1.2345 0.72254,0.072 0,-5.87477 0,-1.16007 z m 43.80427,40.39293 c -2.2421,5.5114 -5.13514,9.4999 -12.80167,9.4999 l -10.41491,0 0,-43.2937 c 0.0724,-2.46567 2.09744,-4.4962 4.62885,-4.4962 l 0.94023,0 0,-0.72519 -15.76703,0 0,0.72519 0.86791,0 c 2.53141,0 4.62886,2.03053 4.62886,4.4962 l 0,40.248 c 0,2.4656 -2.09745,4.5687 -4.62886,4.5687 l -0.86791,0 0,0.7251 29.9429,0 4.19488,-11.748 -0.72325,0 z m 38.69713,-39.08771 0,0.7252 1.15722,0 c 2.02512,0 3.76094,1.52289 3.83326,3.55342 l 0,28.57249 c 0,10.0075 -6.43699,16.6793 -16.12866,16.6793 -9.18537,0 -15.33306,-7.0343 -15.33306,-17.6221 l 0,-27.6297 c 0.0724,-2.03053 1.73582,-3.55342 3.76094,-3.55342 l 1.22954,0 0,-0.72519 -14.68214,0 0,0.72519 1.1572,0 c 2.09746,0 3.76096,1.52289 3.83328,3.62594 l 0,28.64498 c 0,11.313 8.02817,18.8549 20.03424,18.8549 11.71679,0 19.52797,-7.6144 19.52797,-18.9999 l 0,-28.64502 c 0.0724,-2.03053 1.73583,-3.4809 3.76095,-3.4809 l 1.22954,0 0,-0.7252 -13.38028,0 z m 16.73827,0.0717 0,0.6543 0.93945,0 c 2.38676,0 4.55664,1.81193 4.55664,4.20511 l 0,40.6113 c 0,2.5381 -2.09749,4.5684 -4.62891,4.5684 l -0.86718,0 -0.0723,0.7246 24.51758,0 c 15.47773,0 25.96484,-10.152 25.96484,-25.3809 0,-15.229 -10.48711,-25.38281 -25.96484,-25.38281 l -24.44531,0 z m 10.19726,2.17578 14.24805,0 c 12.29538,0 20.54102,9.28333 20.54102,23.20703 0,13.8511 -8.17332,23.1328 -20.54102,23.1328 l -14.24805,0 0,-46.33983 z m 78.75673,36.84023 c -2.24211,5.5114 -5.13513,9.4999 -12.80167,9.4999 l -10.41492,0 0,-21.7556 12.29538,0 c 1.95281,0.073 3.47165,1.668 3.47165,3.626 l 0,1.0152 0.72326,0 0,-11.458 -0.72326,0 0,1.0878 c 0,1.9581 -1.59117,3.5534 -3.54396,3.5534 l -12.22307,0 0,-22.40832 14.75447,0 c 2.31443,0.14503 4.05024,2.03053 4.05024,4.35112 l 0,1.2329 0.72326,0.073 0,-5.8741 0,-1.1603 0,-2.17557 c -1.30186,0.58016 -5.49676,1.30533 -8.60677,1.30533 l -21.11914,0 0,0.72521 0.94024,0 c 2.38675,0 4.55653,1.88548 4.55653,4.20613 l 0,40.6105 c 0,2.4656 -2.09745,4.5687 -4.62886,4.5687 l -0.86791,0 0,0.7252 29.94289,0 4.19489,-11.748 -0.72325,0 z" />
  </g>
</svg>
